# xmcd CD database file
#
# Track frame offsets:
#	150
#	12717
#	25550
#	43550
#	61602
#	73345
#	84850
#	96107
#	114367
#	130537
#	149222
#	165162
#	178867
#	196880
#	209350
#	228415
#	240577
#	258150
#	270325
#	293422
#
# Disc length: 4184 seconds
#
# Revision: 0
# Processed by: cddbd v1.5.2PL0 Copyright (c) Steve Scherf et al.
# Submitted via: CDex 1.70beta2
#
DISCID=08105614
DTITLE=Junior Mance Trio and Orchestra - That Lovin' Feelin'
DYEAR=1900
DGENRE=Jazz
TTITLE0=Never On Sunday
TTITLE1=Maria
TTITLE2=Tara's Theme
TTITLE3=Fanny
TTITLE4=On Green Dolphin Street
TTITLE5=One-Eyed Jacks
TTITLE6=Exodus
TTITLE7=Invitation
TTITLE8=The Apartment
TTITLE9=Goodbye Again
TTITLE10=Spellbound
TTITLE11=You've Lost That Lovin' Feelin'
TTITLE12=Mean Old Frisco Blues
TTITLE13=Out South
TTITLE14=The Good Life
TTITLE15=Cubano Chant
TTITLE16=Boss Blues
TTITLE17=Blowin' In The Wind
TTITLE18=When Sunny Gets Blue
TTITLE19=Lee's Lament
EXTD=
EXTT0=
EXTT1=
EXTT2=
EXTT3=
EXTT4=
EXTT5=
EXTT6=
EXTT7=
EXTT8=
EXTT9=
EXTT10=
EXTT11=
EXTT12=
EXTT13=
EXTT14=
EXTT15=
EXTT16=
EXTT17=
EXTT18=
EXTT19=
PLAYORDER=
